<svg width="800" height="400" viewBox="0 0 800 400" fill="none" xmlns="http://www.w3.org/2000/svg">
  <!-- Background -->
  <rect width="800" height="400" rx="8" fill="white" />
  
  <!-- Chart Title -->
  <text x="400" y="30" text-anchor="middle" fill="#111827" font-size="18" font-weight="bold" font-family="Arial">煤炭产量统计</text>
  
  <!-- Chart Grid Lines -->
  <g stroke="#E5E7EB" stroke-width="1">
    <line x1="100" y1="350" x2="750" y2="350" />
    <line x1="100" y1="300" x2="750" y2="300" />
    <line x1="100" y1="250" x2="750" y2="250" />
    <line x1="100" y1="200" x2="750" y2="200" />
    <line x1="100" y1="150" x2="750" y2="150" />
    <line x1="100" y1="100" x2="750" y2="100" />
  </g>
  
  <!-- Y-axis -->
  <line x1="100" y1="75" x2="100" y2="350" stroke="#94A3B8" stroke-width="1" />
  
  <!-- X-axis -->
  <line x1="100" y1="350" x2="750" y2="350" stroke="#94A3B8" stroke-width="1" />
  
  <!-- Y-axis Labels -->
  <text x="90" y="350" text-anchor="end" fill="#6B7280" font-size="12" font-family="Arial">0</text>
  <text x="90" y="300" text-anchor="end" fill="#6B7280" font-size="12" font-family="Arial">100</text>
  <text x="90" y="250" text-anchor="end" fill="#6B7280" font-size="12" font-family="Arial">200</text>
  <text x="90" y="200" text-anchor="end" fill="#6B7280" font-size="12" font-family="Arial">300</text>
  <text x="90" y="150" text-anchor="end" fill="#6B7280" font-size="12" font-family="Arial">400</text>
  <text x="90" y="100" text-anchor="end" fill="#6B7280" font-size="12" font-family="Arial">500</text>
  <text x="90" y="75" text-anchor="end" fill="#9CA3AF" font-size="10" font-family="Arial">万吨</text>
  
  <!-- X-axis Labels (Sites) -->
  <text x="143" y="370" text-anchor="middle" fill="#6B7280" font-size="12" font-family="Arial">华北矿</text>
  <text x="229" y="370" text-anchor="middle" fill="#6B7280" font-size="12" font-family="Arial">西北矿</text>
  <text x="315" y="370" text-anchor="middle" fill="#6B7280" font-size="12" font-family="Arial">陕西矿</text>
  <text x="401" y="370" text-anchor="middle" fill="#6B7280" font-size="12" font-family="Arial">山西矿</text>
  <text x="487" y="370" text-anchor="middle" fill="#6B7280" font-size="12" font-family="Arial">内蒙矿</text>
  <text x="573" y="370" text-anchor="middle" fill="#6B7280" font-size="12" font-family="Arial">鄂尔多斯</text>
  <text x="659" y="370" text-anchor="middle" fill="#6B7280" font-size="12" font-family="Arial">淮南矿</text>
  <text x="745" y="370" text-anchor="middle" fill="#6B7280" font-size="12" font-family="Arial">平顶山</text>
  
  <!-- Production Bars -->
  <!-- Current Year -->
  <rect x="123" y="210" width="30" height="140" rx="2" fill="url(#production_gradient)" />
  <rect x="209" y="120" width="30" height="230" rx="2" fill="url(#production_gradient)" />
  <rect x="295" y="160" width="30" height="190" rx="2" fill="url(#production_gradient)" />
  <rect x="381" y="90" width="30" height="260" rx="2" fill="url(#production_gradient)" />
  <rect x="467" y="130" width="30" height="220" rx="2" fill="url(#production_gradient)" />
  <rect x="553" y="140" width="30" height="210" rx="2" fill="url(#production_gradient)" />
  <rect x="639" y="180" width="30" height="170" rx="2" fill="url(#production_gradient)" />
  <rect x="725" y="240" width="30" height="110" rx="2" fill="url(#production_gradient)" />
  
  <!-- Previous Year -->
  <rect x="153" y="230" width="30" height="120" fill="#94A3B8" />
  <rect x="239" y="150" width="30" height="200" fill="#94A3B8" />
  <rect x="325" y="170" width="30" height="180" fill="#94A3B8" />
  <rect x="411" y="120" width="30" height="230" fill="#94A3B8" />
  <rect x="497" y="150" width="30" height="200" fill="#94A3B8" />
  <rect x="583" y="160" width="30" height="190" fill="#94A3B8" />
  <rect x="669" y="190" width="30" height="160" fill="#94A3B8" />
  <rect x="755" y="250" width="30" height="100" fill="#94A3B8" />
  
  <!-- Value Labels -->
  <text x="138" y="205" text-anchor="middle" fill="white" font-size="10" font-weight="bold" font-family="Arial">280</text>
  <text x="224" y="115" text-anchor="middle" fill="white" font-size="10" font-weight="bold" font-family="Arial">460</text>
  <text x="310" y="155" text-anchor="middle" fill="white" font-size="10" font-weight="bold" font-family="Arial">380</text>
  <text x="396" y="85" text-anchor="middle" fill="white" font-size="10" font-weight="bold" font-family="Arial">520</text>
  <text x="482" y="125" text-anchor="middle" fill="white" font-size="10" font-weight="bold" font-family="Arial">440</text>
  <text x="568" y="135" text-anchor="middle" fill="white" font-size="10" font-weight="bold" font-family="Arial">420</text>
  <text x="654" y="175" text-anchor="middle" fill="white" font-size="10" font-weight="bold" font-family="Arial">340</text>
  <text x="740" y="235" text-anchor="middle" fill="white" font-size="10" font-weight="bold" font-family="Arial">220</text>
  
  <!-- Total Label -->
  <rect x="570" y="50" width="160" height="30" rx="4" fill="#F8FAFC" stroke="#E2E8F0" />
  <text x="650" y="70" text-anchor="middle" fill="#111827" font-size="14" font-weight="bold" font-family="Arial">总产量: 3060万吨</text>
  
  <!-- Growth Indicators -->
  <path d="M138,180 L138,160 L143,165 L133,165 Z" fill="#22C55E" />
  <text x="168" y="230" text-anchor="middle" fill="#22C55E" font-size="10" font-weight="bold" font-family="Arial">+17%</text>
  
  <path d="M224,95 L224,75 L229,80 L219,80 Z" fill="#22C55E" />
  <text x="254" y="150" text-anchor="middle" fill="#22C55E" font-size="10" font-weight="bold" font-family="Arial">+15%</text>
  
  <path d="M310,135 L310,115 L315,120 L305,120 Z" fill="#22C55E" />
  <text x="340" y="170" text-anchor="middle" fill="#22C55E" font-size="10" font-weight="bold" font-family="Arial">+6%</text>
  
  <path d="M396,65 L396,45 L401,50 L391,50 Z" fill="#22C55E" />
  <text x="426" y="120" text-anchor="middle" fill="#22C55E" font-size="10" font-weight="bold" font-family="Arial">+13%</text>
  
  <path d="M482,105 L482,85 L487,90 L477,90 Z" fill="#22C55E" />
  <text x="512" y="150" text-anchor="middle" fill="#22C55E" font-size="10" font-weight="bold" font-family="Arial">+10%</text>
  
  <path d="M568,115 L568,95 L573,100 L563,100 Z" fill="#22C55E" />
  <text x="598" y="160" text-anchor="middle" fill="#22C55E" font-size="10" font-weight="bold" font-family="Arial">+11%</text>
  
  <path d="M654,155 L654,135 L659,140 L649,140 Z" fill="#22C55E" />
  <text x="684" y="190" text-anchor="middle" fill="#22C55E" font-size="10" font-weight="bold" font-family="Arial">+6%</text>
  
  <path d="M740,215 L740,195 L745,200 L735,200 Z" fill="#22C55E" />
  <text x="770" y="250" text-anchor="middle" fill="#22C55E" font-size="10" font-weight="bold" font-family="Arial">+10%</text>
  
  <!-- Legend -->
  <rect x="110" y="50" width="160" height="50" rx="4" fill="white" stroke="#E5E7EB" />
  
  <rect x="130" y="65" width="15" height="10" rx="1" fill="url(#production_gradient)" />
  <text x="155" y="74" fill="#111827" font-size="12" font-family="Arial">2025年</text>
  
  <rect x="130" y="85" width="15" height="10" rx="1" fill="#94A3B8" />
  <text x="155" y="94" fill="#111827" font-size="12" font-family="Arial">2024年</text>
  
  <!-- Definitions -->
  <defs>
    <linearGradient id="production_gradient" x1="0" y1="0" x2="0" y2="1" gradientUnits="userSpaceOnUse">
      <stop offset="0" stop-color="#3B82F6" />
      <stop offset="1" stop-color="#60A5FA" />
    </linearGradient>
  </defs>
</svg>