<?xml version="1.0" encoding="UTF-8"?>
<svg xmlns="http://www.w3.org/2000/svg" viewBox="0 0 800 600" width="800" height="600">
  <!-- Background -->
  <defs>
    <linearGradient id="bg-gradient" x1="0%" y1="0%" x2="100%" y2="100%">
      <stop offset="0%" stop-color="#1a2a3a" />
      <stop offset="100%" stop-color="#0f1a2a" />
    </linearGradient>
  </defs>
  <rect width="800" height="600" fill="url(#bg-gradient)" />
  
  <!-- Coal Storage Facility -->
  <g>
    <!-- Facility Building -->
    <rect x="150" y="250" width="500" height="200" rx="10" fill="#2c3e50" />
    <rect x="180" y="300" width="440" height="150" fill="#34495e" />
    
    <!-- Roof -->
    <polygon points="150,250 400,150 650,250" fill="#7f8c8d" />
    
    <!-- Windows -->
    <rect x="230" y="320" width="60" height="60" fill="#3498db" opacity="0.7" />
    <rect x="370" y="320" width="60" height="60" fill="#3498db" opacity="0.7" />
    <rect x="510" y="320" width="60" height="60" fill="#3498db" opacity="0.7" />
    
    <!-- Door -->
    <rect x="370" y="400" width="60" height="50" fill="#2c3e50" />
    
    <!-- Coal Piles -->
    <ellipse cx="200" y="500" rx="100" ry="40" fill="#333" />
    <ellipse cx="400" y="520" rx="150" ry="40" fill="#222" />
    <ellipse cx="600" y="490" rx="120" ry="50" fill="#444" />
    
    <!-- Monitoring Equipment -->
    <g>
      <!-- Camera Pole -->
      <rect x="700" y="300" width="10" height="150" fill="#95a5a6" />
      <!-- Camera Housing -->
      <rect x="685" y="280" width="40" height="30" rx="5" fill="#e74c3c" />
      <circle cx="705" cy="295" r="10" fill="#3498db" />
    </g>
    
    <!-- Dashboard/Monitoring Screen -->
    <rect x="50" y="100" width="120" height="80" rx="5" fill="#2c3e50" />
    <rect x="60" y="110" width="100" height="60" rx="2" fill="#ecf0f1" />
    <line x1="70" y1="130" x2="150" y2="130" stroke="#3498db" stroke-width="2" />
    <line x1="70" y1="140" x2="120" y2="140" stroke="#e74c3c" stroke-width="2" />
    <line x1="70" y1="150" x2="140" y2="150" stroke="#2ecc71" stroke-width="2" />
    <circle cx="140" cy="120" r="5" fill="#e74c3c" />
    
    <!-- Data Transmission Waves -->
    <path d="M720 280 Q 650 200, 580 240" fill="none" stroke="#3498db" stroke-width="2" stroke-dasharray="5,5" />
    <path d="M720 280 Q 600 150, 480 200" fill="none" stroke="#3498db" stroke-width="2" stroke-dasharray="5,5" />
    <path d="M720 280 Q 500 100, 280 180" fill="none" stroke="#3498db" stroke-width="2" stroke-dasharray="5,5" />
    <path d="M720 280 Q 400 50, 180 130" fill="none" stroke="#3498db" stroke-width="2" stroke-dasharray="5,5" />
  </g>
  
  <!-- Drone -->
  <g>
    <circle cx="300" cy="180" r="15" fill="#34495e" />
    <line x1="285" y1="180" x2="270" y2="190" stroke="#95a5a6" stroke-width="3" />
    <line x1="315" y1="180" x2="330" y2="190" stroke="#95a5a6" stroke-width="3" />
    <line x1="300" y1="165" x2="300" y2="150" stroke="#95a5a6" stroke-width="3" />
    <line x1="300" y1="195" x2="300" y2="210" stroke="#95a5a6" stroke-width="3" />
    <circle cx="270" cy="190" r="5" fill="#e74c3c" />
    <circle cx="330" cy="190" r="5" fill="#e74c3c" />
    <circle cx="300" cy="150" r="5" fill="#e74c3c" />
    <circle cx="300" cy="210" r="5" fill="#e74c3c" />
  </g>
  
  <!-- Smart Technology Elements -->
  <g>
    <!-- IoT Nodes (Small Sensors) -->
    <circle cx="200" cy="460" r="5" fill="#f1c40f" />
    <circle cx="350" cy="480" r="5" fill="#f1c40f" />
    <circle cx="500" cy="470" r="5" fill="#f1c40f" />
    <circle cx="650" cy="440" r="5" fill="#f1c40f" />
    
    <!-- Data Waves from Sensors -->
    <circle cx="200" cy="460" r="10" fill="none" stroke="#f1c40f" stroke-width="1">
      <animate attributeName="r" from="10" to="30" dur="3s" repeatCount="indefinite" />
      <animate attributeName="opacity" from="1" to="0" dur="3s" repeatCount="indefinite" />
    </circle>
    <circle cx="350" cy="480" r="10" fill="none" stroke="#f1c40f" stroke-width="1">
      <animate attributeName="r" from="10" to="30" dur="4s" repeatCount="indefinite" />
      <animate attributeName="opacity" from="1" to="0" dur="4s" repeatCount="indefinite" />
    </circle>
    <circle cx="500" cy="470" r="10" fill="none" stroke="#f1c40f" stroke-width="1">
      <animate attributeName="r" from="10" to="30" dur="3.5s" repeatCount="indefinite" />
      <animate attributeName="opacity" from="1" to="0" dur="3.5s" repeatCount="indefinite" />
    </circle>
    <circle cx="650" cy="440" r="10" fill="none" stroke="#f1c40f" stroke-width="1">
      <animate attributeName="r" from="10" to="30" dur="4.5s" repeatCount="indefinite" />
      <animate attributeName="opacity" from="1" to="0" dur="4.5s" repeatCount="indefinite" />
    </circle>
  </g>
</svg>