<?xml version="1.0" encoding="UTF-8"?>
<svg xmlns="http://www.w3.org/2000/svg" viewBox="0 0 1440 600" width="1440" height="600">
  <!-- Background Gradient -->
  <defs>
    <linearGradient id="bg-gradient" x1="0%" y1="0%" x2="100%" y2="100%">
      <stop offset="0%" stop-color="#1a2a3a" />
      <stop offset="100%" stop-color="#0a1520" />
    </linearGradient>
    
    <!-- Coal Industry Pattern -->
    <pattern id="coal-pattern" x="0" y="0" width="200" height="200" patternUnits="userSpaceOnUse">
      <path d="M20,20 L40,10 L60,25 L80,15 L100,30 L80,40 L100,50 L80,60 L60,50 L40,65 L20,50 Z" fill="#333" opacity="0.4" />
      <path d="M120,120 L140,110 L160,125 L180,115 L200,130 L180,140 L200,150 L180,160 L160,150 L140,165 L120,150 Z" fill="#333" opacity="0.4" />
      <path d="M120,20 L140,10 L160,25 L180,15 L200,30 L180,40 L200,50 L180,60 L160,50 L140,65 L120,50 Z" fill="#333" opacity="0.2" />
      <path d="M20,120 L40,110 L60,125 L80,115 L100,130 L80,140 L100,150 L80,160 L60,150 L40,165 L20,150 Z" fill="#333" opacity="0.2" />
    </pattern>
  </defs>
  
  <!-- Main Background -->
  <rect width="1440" height="600" fill="url(#bg-gradient)" />
  <rect width="1440" height="600" fill="url(#coal-pattern)" />
  
  <!-- Geometric Elements -->
  <g opacity="0.2">
    <circle cx="200" cy="100" r="100" fill="#3498db" opacity="0.1" />
    <circle cx="1200" cy="500" r="120" fill="#3498db" opacity="0.1" />
    <circle cx="800" cy="300" r="80" fill="#3498db" opacity="0.1" />
    <circle cx="400" cy="500" r="60" fill="#3498db" opacity="0.1" />
    <circle cx="1000" cy="150" r="70" fill="#3498db" opacity="0.1" />
  </g>
  
  <!-- Abstract Coal Industry Elements -->
  <g opacity="0.7">
    <!-- Mountain/Mining Element -->
    <polygon points="0,600 300,600 150,450" fill="#2c3e50" opacity="0.3" />
    <polygon points="250,600 450,600 350,500" fill="#2c3e50" opacity="0.3" />
    <polygon points="400,600 700,600 550,400" fill="#2c3e50" opacity="0.3" />
    
    <!-- Factory/Industrial Element -->
    <rect x="800" y="500" width="100" height="100" fill="#2c3e50" opacity="0.3" />
    <rect x="820" y="450" width="60" height="50" fill="#2c3e50" opacity="0.3" />
    <rect x="835" y="400" width="30" height="50" fill="#2c3e50" opacity="0.3" />
    <rect x="940" y="520" width="80" height="80" fill="#2c3e50" opacity="0.3" />
    <rect x="955" y="480" width="50" height="40" fill="#2c3e50" opacity="0.3" />
    <rect x="970" y="440" width="20" height="40" fill="#2c3e50" opacity="0.3" />
    
    <!-- Wave Pattern (Representing Energy) -->
    <path d="M0,350 Q180,300 360,350 Q540,400 720,350 Q900,300 1080,350 Q1260,400 1440,350" stroke="#3498db" stroke-width="2" fill="none" opacity="0.2" />
    <path d="M0,370 Q180,320 360,370 Q540,420 720,370 Q900,320 1080,370 Q1260,420 1440,370" stroke="#3498db" stroke-width="2" fill="none" opacity="0.15" />
    <path d="M0,330 Q180,280 360,330 Q540,380 720,330 Q900,280 1080,330 Q1260,380 1440,330" stroke="#3498db" stroke-width="2" fill="none" opacity="0.1" />
  </g>
  
  <!-- Particle Effect -->
  <g>
    <circle cx="200" cy="200" r="2" fill="white" opacity="0.5" />
    <circle cx="400" cy="300" r="1.5" fill="white" opacity="0.4" />
    <circle cx="600" cy="150" r="2" fill="white" opacity="0.6" />
    <circle cx="800" cy="250" r="1" fill="white" opacity="0.5" />
    <circle cx="1000" cy="350" r="2" fill="white" opacity="0.4" />
    <circle cx="1200" cy="200" r="1.5" fill="white" opacity="0.6" />
    <circle cx="300" cy="400" r="1" fill="white" opacity="0.5" />
    <circle cx="500" cy="100" r="2" fill="white" opacity="0.4" />
    <circle cx="700" cy="300" r="1.5" fill="white" opacity="0.6" />
    <circle cx="900" cy="150" r="1" fill="white" opacity="0.5" />
    <circle cx="1100" cy="400" r="2" fill="white" opacity="0.4" />
    <circle cx="1300" cy="250" r="1.5" fill="white" opacity="0.6" />
    <circle cx="250" cy="350" r="1" fill="white" opacity="0.5" />
    <circle cx="450" cy="200" r="2" fill="white" opacity="0.4" />
    <circle cx="650" cy="400" r="1.5" fill="white" opacity="0.6" />
    <circle cx="850" cy="100" r="1" fill="white" opacity="0.5" />
    <circle cx="1050" cy="300" r="2" fill="white" opacity="0.4" />
    <circle cx="1250" cy="150" r="1.5" fill="white" opacity="0.6" />
  </g>
  
  <!-- Accent Lines -->
  <line x1="0" y1="580" x2="1440" y2="580" stroke="#3498db" stroke-width="2" opacity="0.3" />
  <line x1="0" y1="585" x2="1440" y2="585" stroke="#3498db" stroke-width="1" opacity="0.2" />
</svg>