<?xml version="1.0" encoding="UTF-8"?>
<svg xmlns="http://www.w3.org/2000/svg" viewBox="0 0 800 600" width="800" height="600">
  <!-- Background -->
  <defs>
    <linearGradient id="bg-gradient" x1="0%" y1="0%" x2="100%" y2="100%">
      <stop offset="0%" stop-color="#1e3a8a" />
      <stop offset="100%" stop-color="#0f172a" />
    </linearGradient>
    
    <!-- Particle Pattern -->
    <pattern id="coalPattern" x="0" y="0" width="20" height="20" patternUnits="userSpaceOnUse">
      <circle cx="3" cy="3" r="1" fill="#4B5563" opacity="0.8" />
      <circle cx="10" cy="10" r="2" fill="#374151" opacity="0.6" />
      <circle cx="17" cy="5" r="1.5" fill="#1F2937" opacity="0.7" />
      <circle cx="5" cy="15" r="1.2" fill="#6B7280" opacity="0.5" />
      <circle cx="15" cy="17" r="1" fill="#4B5563" opacity="0.6" />
    </pattern>
  </defs>
  <rect width="800" height="600" fill="url(#bg-gradient)" />
  
  <!-- Main content: Density Analysis Visualization -->
  
  <!-- Coal samples with different densities -->
  <g>
    <!-- Main display area -->
    <rect x="300" y="320" width="400" height="200" rx="5" fill="#0F172A" stroke="#1E293B" stroke-width="1" />
    
    <!-- Coal samples -->
    <g>
      <!-- Sample 1: Low Density -->
      <rect x="320" y="340" width="100" height="160" fill="url(#coalPattern)" stroke="#1E293B" stroke-width="1" />
      <text x="370" y="520" font-family="Arial" font-size="10" fill="white" text-anchor="middle">800 kg/m³</text>
      <text x="370" y="535" font-family="Arial" font-size="8" fill="#94A3B8" text-anchor="middle">Low Density</text>
      
      <!-- Sample 2: Medium Density -->
      <rect x="440" y="340" width="100" height="160" fill="url(#coalPattern)" stroke="#1E293B" stroke-width="1" />
      <text x="490" y="520" font-family="Arial" font-size="10" fill="white" text-anchor="middle">1100 kg/m³</text>
      <text x="490" y="535" font-family="Arial" font-size="8" fill="#94A3B8" text-anchor="middle">Medium Density</text>
      
      <!-- Sample 3: High Density -->
      <rect x="560" y="340" width="100" height="160" fill="url(#coalPattern)" stroke="#1E293B" stroke-width="1" />
      <text x="610" y="520" font-family="Arial" font-size="10" fill="white" text-anchor="middle">1400 kg/m³</text>
      <text x="610" y="535" font-family="Arial" font-size="8" fill="#94A3B8" text-anchor="middle">High Density</text>
      
      <!-- Coal particle visualization -->
      <!-- Low density - sparse particles -->
      <g>
        <circle cx="330" cy="360" r="3" fill="#4B5563" />
        <circle cx="345" cy="355" r="2.5" fill="#4B5563" />
        <circle cx="360" cy="365" r="3" fill="#4B5563" />
        <circle cx="375" cy="375" r="2" fill="#4B5563" />
        <circle cx="390" cy="360" r="2.5" fill="#4B5563" />
        <circle cx="405" cy="380" r="3" fill="#4B5563" />
        
        <circle cx="335" cy="395" r="2.5" fill="#4B5563" />
        <circle cx="355" cy="390" r="3" fill="#4B5563" />
        <circle cx="375" cy="400" r="2" fill="#4B5563" />
        <circle cx="395" cy="395" r="2.5" fill="#4B5563" />
        
        <circle cx="330" cy="420" r="3" fill="#4B5563" />
        <circle cx="350" cy="425" r="2.5" fill="#4B5563" />
        <circle cx="370" cy="430" r="3" fill="#4B5563" />
        <circle cx="390" cy="420" r="2" fill="#4B5563" />
        
        <circle cx="335" cy="450" r="2.5" fill="#4B5563" />
        <circle cx="355" cy="445" r="3" fill="#4B5563" />
        <circle cx="375" cy="460" r="2" fill="#4B5563" />
        <circle cx="395" cy="455" r="2.5" fill="#4B5563" />
        
        <circle cx="330" cy="475" r="3" fill="#4B5563" />
        <circle cx="350" cy="470" r="2.5" fill="#4B5563" />
        <circle cx="370" cy="480" r="3" fill="#4B5563" />
        <circle cx="390" cy="475" r="2" fill="#4B5563" />
      </g>
      
      <!-- Medium density - more particles -->
      <g>
        <circle cx="450" cy="350" r="2.5" fill="#4B5563" />
        <circle cx="460" cy="355" r="2" fill="#4B5563" />
        <circle cx="470" cy="350" r="2.5" fill="#4B5563" />
        <circle cx="480" cy="355" r="2" fill="#4B5563" />
        <circle cx="490" cy="350" r="2.5" fill="#4B5563" />
        <circle cx="500" cy="355" r="2" fill="#4B5563" />
        <circle cx="510" cy="350" r="2.5" fill="#4B5563" />
        <circle cx="520" cy="355" r="2" fill="#4B5563" />
        
        <circle cx="450" cy="370" r="2" fill="#4B5563" />
        <circle cx="460" cy="375" r="2.5" fill="#4B5563" />
        <circle cx="470" cy="370" r="2" fill="#4B5563" />
        <circle cx="480" cy="375" r="2.5" fill="#4B5563" />
        <circle cx="490" cy="370" r="2" fill="#4B5563" />
        <circle cx="500" cy="375" r="2.5" fill="#4B5563" />
        <circle cx="510" cy="370" r="2" fill="#4B5563" />
        <circle cx="520" cy="375" r="2.5" fill="#4B5563" />
        
        <circle cx="450" cy="390" r="2.5" fill="#4B5563" />
        <circle cx="460" cy="395" r="2" fill="#4B5563" />
        <circle cx="470" cy="390" r="2.5" fill="#4B5563" />
        <circle cx="480" cy="395" r="2" fill="#4B5563" />
        <circle cx="490" cy="390" r="2.5" fill="#4B5563" />
        <circle cx="500" cy="395" r="2" fill="#4B5563" />
        <circle cx="510" cy="390" r="2.5" fill="#4B5563" />
        <circle cx="520" cy="395" r="2" fill="#4B5563" />
        
        <circle cx="450" cy="410" r="2" fill="#4B5563" />
        <circle cx="460" cy="415" r="2.5" fill="#4B5563" />
        <circle cx="470" cy="410" r="2" fill="#4B5563" />
        <circle cx="480" cy="415" r="2.5" fill="#4B5563" />
        <circle cx="490" cy="410" r="2" fill="#4B5563" />
        <circle cx="500" cy="415" r="2.5" fill="#4B5563" />
        <circle cx="510" cy="410" r="2" fill="#4B5563" />
        <circle cx="520" cy="415" r="2.5" fill="#4B5563" />
        
        <circle cx="450" cy="430" r="2.5" fill="#4B5563" />
        <circle cx="460" cy="435" r="2" fill="#4B5563" />
        <circle cx="470" cy="430" r="2.5" fill="#4B5563" />
        <circle cx="480" cy="435" r="2" fill="#4B5563" />
        <circle cx="490" cy="430" r="2.5" fill="#4B5563" />
        <circle cx="500" cy="435" r="2" fill="#4B5563" />
        <circle cx="510" cy="430" r="2.5" fill="#4B5563" />
        <circle cx="520" cy="435" r="2" fill="#4B5563" />
        
        <circle cx="450" cy="450" r="2" fill="#4B5563" />
        <circle cx="460" cy="455" r="2.5" fill="#4B5563" />
        <circle cx="470" cy="450" r="2" fill="#4B5563" />
        <circle cx="480" cy="455" r="2.5" fill="#4B5563" />
        <circle cx="490" cy="450" r="2" fill="#4B5563" />
        <circle cx="500" cy="455" r="2.5" fill="#4B5563" />
        <circle cx="510" cy="450" r="2" fill="#4B5563" />
        <circle cx="520" cy="455" r="2.5" fill="#4B5563" />
        
        <circle cx="450" cy="470" r="2.5" fill="#4B5563" />
        <circle cx="460" cy="475" r="2" fill="#4B5563" />
        <circle cx="470" cy="470" r="2.5" fill="#4B5563" />
        <circle cx="480" cy="475" r="2" fill="#4B5563" />
        <circle cx="490" cy="470" r="2.5" fill="#4B5563" />
        <circle cx="500" cy="475" r="2" fill="#4B5563" />
        <circle cx="510" cy="470" r="2.5" fill="#4B5563" />
        <circle cx="520" cy="475" r="2" fill="#4B5563" />
      </g>
      
      <!-- High density - very densely packed particles -->
      <g>
        <circle cx="565" cy="345" r="1.5" fill="#4B5563" />
        <circle cx="570" cy="345" r="1.5" fill="#4B5563" />
        <circle cx="575" cy="345" r="1.5" fill="#4B5563" />
        <circle cx="580" cy="345" r="1.5" fill="#4B5563" />
        <circle cx="585" cy="345" r="1.5" fill="#4B5563" />
        <circle cx="590" cy="345" r="1.5" fill="#4B5563" />
        <circle cx="595" cy="345" r="1.5" fill="#4B5563" />
        <circle cx="600" cy="345" r="1.5" fill="#4B5563" />
        <circle cx="605" cy="345" r="1.5" fill="#4B5563" />
        <circle cx="610" cy="345" r="1.5" fill="#4B5563" />
        <circle cx="615" cy="345" r="1.5" fill="#4B5563" />
        <circle cx="620" cy="345" r="1.5" fill="#4B5563" />
        <circle cx="625" cy="345" r="1.5" fill="#4B5563" />
        <circle cx="630" cy="345" r="1.5" fill="#4B5563" />
        <circle cx="635" cy="345" r="1.5" fill="#4B5563" />
        <circle cx="640" cy="345" r="1.5" fill="#4B5563" />
        <circle cx="645" cy="345" r="1.5" fill="#4B5563" />
        <circle cx="650" cy="345" r="1.5" fill="#4B5563" />
        <circle cx="655" cy="345" r="1.5" fill="#4B5563" />
        
        <circle cx="565" cy="350" r="1.5" fill="#4B5563" />
        <circle cx="570" cy="350" r="1.5" fill="#4B5563" />
        <circle cx="575" cy="350" r="1.5" fill="#4B5563" />
        <circle cx="580" cy="350" r="1.5" fill="#4B5563" />
        <circle cx="585" cy="350" r="1.5" fill="#4B5563" />
        <circle cx="590" cy="350" r="1.5" fill="#4B5563" />
        <circle cx="595" cy="350" r="1.5" fill="#4B5563" />
        <circle cx="600" cy="350" r="1.5" fill="#4B5563" />
        <circle cx="605" cy="350" r="1.5" fill="#4B5563" />
        <circle cx="610" cy="350" r="1.5" fill="#4B5563" />
        <circle cx="615" cy="350" r="1.5" fill="#4B5563" />
        <circle cx="620" cy="350" r="1.5" fill="#4B5563" />
        <circle cx="625" cy="350" r="1.5" fill="#4B5563" />
        <circle cx="630" cy="350" r="1.5" fill="#4B5563" />
        <circle cx="635" cy="350" r="1.5" fill="#4B5563" />
        <circle cx="640" cy="350" r="1.5" fill="#4B5563" />
        <circle cx="645" cy="350" r="1.5" fill="#4B5563" />
        <circle cx="650" cy="350" r="1.5" fill="#4B5563" />
        <circle cx="655" cy="350" r="1.5" fill="#4B5563" />
        
        <!-- Repeating pattern - omitted for brevity but would continue -->
        <!-- Representing multiple rows of tightly packed particles -->
        
        <circle cx="565" cy="360" r="1.5" fill="#4B5563" />
        <circle cx="570" cy="360" r="1.5" fill="#4B5563" />
        <circle cx="575" cy="360" r="1.5" fill="#4B5563" />
        <circle cx="580" cy="360" r="1.5" fill="#4B5563" />
        <circle cx="585" cy="360" r="1.5" fill="#4B5563" />
        <circle cx="590" cy="360" r="1.5" fill="#4B5563" />
        <circle cx="595" cy="360" r="1.5" fill="#4B5563" />
        <circle cx="600" cy="360" r="1.5" fill="#4B5563" />
        <circle cx="605" cy="360" r="1.5" fill="#4B5563" />
        <circle cx="610" cy="360" r="1.5" fill="#4B5563" />
        <circle cx="615" cy="360" r="1.5" fill="#4B5563" />
        <circle cx="620" cy="360" r="1.5" fill="#4B5563" />
        <circle cx="625" cy="360" r="1.5" fill="#4B5563" />
        <circle cx="630" cy="360" r="1.5" fill="#4B5563" />
        <circle cx="635" cy="360" r="1.5" fill="#4B5563" />
        <circle cx="640" cy="360" r="1.5" fill="#4B5563" />
        <circle cx="645" cy="360" r="1.5" fill="#4B5563" />
        <circle cx="650" cy="360" r="1.5" fill="#4B5563" />
        <circle cx="655" cy="360" r="1.5" fill="#4B5563" />
        
        <!-- Simulating compacted material with opacity overlay -->
        <rect x="560" y="340" width="100" height="160" fill="#1F2937" opacity="0.3" />
      </g>
    </g>
    
    <!-- Scale labels -->
    <text x="500" y="315" font-family="Arial" font-size="14" fill="white" text-anchor="middle">COAL DENSITY SCALE</text>
  </g>
  
  <!-- Analysis Dashboard -->
  <g>
    <!-- Main dashboard panel -->
    <rect x="50" y="100" width="200" height="420" rx="5" fill="#0F172A" stroke="#1E293B" stroke-width="1" />
    <text x="150" y="125" font-family="Arial" font-size="14" fill="white" text-anchor="middle">DENSITY ANALYSIS</text>
    
    <!-- Parameters section -->
    <g>
      <text x="75" y="155" font-family="Arial" font-size="12" fill="#94A3B8">Parameters</text>
      <line x1="75" y1="160" x2="225" y2="160" stroke="#1E293B" stroke-width="1" />
      
      <!-- Coal Type -->
      <text x="75" y="180" font-family="Arial" font-size="10" fill="white">Coal Type:</text>
      <rect x="75" y="185" width="150" height="25" rx="3" fill="#1E293B" />
      <text x="85" y="202" font-family="Arial" font-size="10" fill="white">Bituminous</text>
      <polygon points="210,197 215,192 220,197 215,202" fill="white" />
      
      <!-- Moisture Content -->
      <text x="75" y="225" font-family="Arial" font-size="10" fill="white">Moisture Content:</text>
      <rect x="75" y="230" width="150" height="25" rx="3" fill="#1E293B" />
      <rect x="75" y="230" width="90" height="25" rx="3" fill="#3B82F6" opacity="0.3" />
      <text x="180" y="247" font-family="Arial" font-size="10" fill="white">8.2%</text>
      
      <!-- Ash Content -->
      <text x="75" y="270" font-family="Arial" font-size="10" fill="white">Ash Content:</text>
      <rect x="75" y="275" width="150" height="25" rx="3" fill="#1E293B" />
      <rect x="75" y="275" width="60" height="25" rx="3" fill="#3B82F6" opacity="0.3" />
      <text x="180" y="292" font-family="Arial" font-size="10" fill="white">6.5%</text>
      
      <!-- Particle Size -->
      <text x="75" y="315" font-family="Arial" font-size="10" fill="white">Particle Size:</text>
      <rect x="75" y="320" width="150" height="25" rx="3" fill="#1E293B" />
      <rect x="75" y="320" width="110" height="25" rx="3" fill="#3B82F6" opacity="0.3" />
      <text x="170" y="337" font-family="Arial" font-size="10" fill="white">0-50mm</text>
      
      <!-- Compaction Level -->
      <text x="75" y="360" font-family="Arial" font-size="10" fill="white">Compaction Level:</text>
      <rect x="75" y="365" width="150" height="25" rx="3" fill="#1E293B" />
      <rect x="75" y="365" width="120" height="25" rx="3" fill="#3B82F6" opacity="0.3" />
      <text x="175" y="382" font-family="Arial" font-size="10" fill="white">High</text>
    </g>
    
    <!-- Results section -->
    <g>
      <text x="75" y="410" font-family="Arial" font-size="12" fill="#94A3B8">Results</text>
      <line x1="75" y1="415" x2="225" y2="415" stroke="#1E293B" stroke-width="1" />
      
      <!-- Estimated Density -->
      <text x="75" y="435" font-family="Arial" font-size="10" fill="white">Estimated Density:</text>
      <text x="180" y="435" font-family="Arial" font-size="12" fill="#10B981" font-weight="bold">1,230 kg/m³</text>
      
      <!-- Confidence Level -->
      <text x="75" y="460" font-family="Arial" font-size="10" fill="white">Confidence:</text>
      <rect x="140" y="452" width="85" height="10" rx="5" fill="#1E293B" />
      <rect x="140" y="452" width="70" height="10" rx="5" fill="#10B981" />
      <text x="225" y="460" font-family="Arial" font-size="10" fill="white">82%</text>
      
      <!-- Weight Conversion -->
      <rect x="75" y="475" width="150" height="30" rx="3" fill="#3B82F6" opacity="0.2" />
      <text x="150" y="495" font-family="Arial" font-size="12" fill="white" text-anchor="middle">25,830 tons estimated</text>
    </g>
  </g>
  
  <!-- Correlation Visualization -->
  <g>
    <!-- Background for scatter plot -->
    <rect x="300" y="100" width="400" height="200" rx="5" fill="#0F172A" stroke="#1E293B" stroke-width="1" />
    <text x="500" y="125" font-family="Arial" font-size="14" fill="white" text-anchor="middle">DENSITY CORRELATIONS</text>
    
    <!-- Axes -->
    <line x1="350" y1="250" x2="650" y2="250" stroke="#94A3B8" stroke-width="1" />
    <line x1="350" y1="150" x2="350" y2="250" stroke="#94A3B8" stroke-width="1" />
    
    <!-- Axis Labels -->
    <text x="500" y="270" font-family="Arial" font-size="10" fill="#94A3B8" text-anchor="middle">Moisture Content (%)</text>
    <text x="325" y="200" font-family="Arial" font-size="10" fill="#94A3B8" transform="rotate(-90 325,200)" text-anchor="middle">Density (kg/m³)</text>
    
    <!-- Grid Lines -->
    <g opacity="0.2">
      <line x1="350" y1="230" x2="650" y2="230" stroke="#94A3B8" stroke-width="0.5" />
      <line x1="350" y1="210" x2="650" y2="210" stroke="#94A3B8" stroke-width="0.5" />
      <line x1="350" y1="190" x2="650" y2="190" stroke="#94A3B8" stroke-width="0.5" />
      <line x1="350" y1="170" x2="650" y2="170" stroke="#94A3B8" stroke-width="0.5" />
      <line x1="350" y1="150" x2="650" y2="150" stroke="#94A3B8" stroke-width="0.5" />
      
      <line x1="400" y1="150" x2="400" y2="250" stroke="#94A3B8" stroke-width="0.5" />
      <line x1="450" y1="150" x2="450" y2="250" stroke="#94A3B8" stroke-width="0.5" />
      <line x1="500" y1="150" x2="500" y2="250" stroke="#94A3B8" stroke-width="0.5" />
      <line x1="550" y1="150" x2="550" y2="250" stroke="#94A3B8" stroke-width="0.5" />
      <line x1="600" y1="150" x2="600" y2="250" stroke="#94A3B8" stroke-width="0.5" />
    </g>
    
    <!-- Data Points -->
    <circle cx="370" cy="170" r="3" fill="#3B82F6" />
    <circle cx="390" cy="175" r="3" fill="#3B82F6" />
    <circle cx="410" cy="185" r="3" fill="#3B82F6" />
    <circle cx="430" cy="190" r="3" fill="#3B82F6" />
    <circle cx="450" cy="195" r="3" fill="#3B82F6" />
    <circle cx="470" cy="198" r="3" fill="#3B82F6" />
    <circle cx="490" cy="205" r="3" fill="#3B82F6" />
    <circle cx="510" cy="210" r="3" fill="#3B82F6" />
    <circle cx="530" cy="215" r="3" fill="#3B82F6" />
    <circle cx="550" cy="220" r="3" fill="#3B82F6" />
    <circle cx="570" cy="225" r="3" fill="#3B82F6" />
    <circle cx="590" cy="230" r="3" fill="#3B82F6" />
    <circle cx="610" cy="235" r="3" fill="#3B82F6" />
    <circle cx="630" cy="240" r="3" fill="#3B82F6" />
    
    <!-- Trend Line -->
    <path d="M370,170 Q500,205 630,240" fill="none" stroke="#10B981" stroke-width="2" stroke-dasharray="none" />
    
    <!-- Annotations -->
    <text x="370" y="160" font-family="Arial" font-size="8" fill="#3B82F6">Low Moisture</text>
    <text x="370" y="168" font-family="Arial" font-size="8" fill="#3B82F6">High Density</text>
    
    <text x="630" y="230" font-family="Arial" font-size="8" fill="#3B82F6">High Moisture</text>
    <text x="630" y="238" font-family="Arial" font-size="8" fill="#3B82F6">Low Density</text>
    
    <!-- Current Selection Indicator -->
    <circle cx="500" cy="205" r="5" fill="none" stroke="#F59E0B" stroke-width="2" />
    <line x1="500" y1="205" x2="500" y2="250" stroke="#F59E0B" stroke-width="1" stroke-dasharray="2,2" />
    <line x1="500" y1="205" x2="350" y2="205" stroke="#F59E0B" stroke-width="1" stroke-dasharray="2,2" />
    <text x="495" y="265" font-family="Arial" font-size="9" fill="#F59E0B">8.2%</text>
    <text x="335" y="207" font-family="Arial" font-size="9" fill="#F59E0B">1,230</text>
  </g>
  
  <!-- Weight Conversion Panel -->
  <g>
    <!-- Formula Visualization -->
    <rect x="300" y="540" width="400" height="40" rx="5" fill="#0F172A" stroke="#1E293B" stroke-width="1" />
    <text x="320" y="565" font-family="Arial" font-size="12" fill="white">Weight = Volume × Density</text>
    <text x="520" y="565" font-family="Arial" font-size="12" fill="white">21,000 m³ × 1,230 kg/m³ = 25,830,000 kg</text>
  </g>
  
  <!-- Additional Legend & Info -->
  <g>
    <rect x="700" y="320" width="80" height="200" rx="5" fill="#0F172A" stroke="#1E293B" stroke-width="1" opacity="0.8" />
    <text x="740" y="340" font-family="Arial" font-size="10" fill="white" text-anchor="middle">FACTORS</text>
    
    <circle cx="715" cy="360" r="4" fill="#3B82F6" />
    <text x="725" y="363" font-family="Arial" font-size="8" fill="white">Moisture</text>
    
    <circle cx="715" cy="380" r="4" fill="#10B981" />
    <text x="725" y="383" font-family="Arial" font-size="8" fill="white">Ash</text>
    
    <circle cx="715" cy="400" r="4" fill="#F59E0B" />
    <text x="725" y="403" font-family="Arial" font-size="8" fill="white">Size</text>
    
    <circle cx="715" cy="420" r="4" fill="#EC4899" />
    <text x="725" y="423" font-family="Arial" font-size="8" fill="white">Compaction</text>
    
    <circle cx="715" cy="440" r="4" fill="#8B5CF6" />
    <text x="725" y="443" font-family="Arial" font-size="8" fill="white">Age</text>
    
    <circle cx="715" cy="460" r="4" fill="#EF4444" />
    <text x="725" y="463" font-family="Arial" font-size="8" fill="white">Coal Rank</text>
    
    <text x="740" y="490" font-family="Arial" font-size="7" fill="#94A3B8" text-anchor="middle">MODEL ACCURACY:</text>
    <text x="740" y="505" font-family="Arial" font-size="9" fill="#10B981" text-anchor="middle">±1.2%</text>
  </g>
</svg>