<svg width="500" height="120" viewBox="0 0 500 120" fill="none" xmlns="http://www.w3.org/2000/svg">
  <!-- Background with gradient -->
  <rect width="500" height="120" rx="10" fill="url(#paint0_linear)" />
  
  <!-- Coal storage facility outline -->
  <rect x="60" y="30" width="380" height="70" rx="5" stroke="white" stroke-width="2" stroke-opacity="0.5" fill="none" />
  
  <!-- Roof structure -->
  <path d="M60 30L80 15H420L440 30" stroke="white" stroke-width="2" stroke-opacity="0.5" fill="none" />
  
  <!-- Equipment installation elements -->
  
  <!-- CCTV Camera 1 -->
  <circle cx="100" cy="30" r="8" fill="#93C5FD" stroke="white" stroke-width="1" />
  <path d="M100 30L110 40" stroke="white" stroke-width="1.5" />
  <rect x="110" y="40" width="15" height="8" rx="1" fill="#60A5FA" stroke="white" stroke-width="1" />
  
  <!-- CCTV Camera 2 -->
  <circle cx="400" cy="30" r="8" fill="#93C5FD" stroke="white" stroke-width="1" />
  <path d="M400 30L390 40" stroke="white" stroke-width="1.5" />
  <rect x="375" y="40" width="15" height="8" rx="1" fill="#60A5FA" stroke="white" stroke-width="1" />
  
  <!-- Thermal Camera -->
  <rect x="240" y="25" width="20" height="15" rx="2" fill="#BFDBFE" stroke="white" stroke-width="1" />
  <circle cx="250" cy="32" r="5" fill="#3B82F6" />
  <path d="M240 40L235 50" stroke="white" stroke-width="1.5" />
  <path d="M260 40L265 50" stroke="white" stroke-width="1.5" />
  
  <!-- Server rack installation -->
  <rect x="160" y="55" width="40" height="45" rx="2" fill="#93C5FD" stroke="white" stroke-width="1.5" />
  <line x1="165" y1="65" x2="195" y2="65" stroke="white" stroke-width="1" />
  <line x1="165" y1="75" x2="195" y2="75" stroke="white" stroke-width="1" />
  <line x1="165" y1="85" x2="195" y2="85" stroke="white" stroke-width="1" />
  <line x1="165" y1="95" x2="195" y2="95" stroke="white" stroke-width="1" />
  
  <!-- Control panel installation -->
  <rect x="300" y="55" width="50" height="30" rx="2" fill="#BFDBFE" stroke="white" stroke-width="1.5" />
  <circle cx="315" cy="65" r="5" fill="#3B82F6" />
  <circle cx="335" cy="65" r="5" fill="#3B82F6" />
  <rect x="310" y="75" width="30" height="5" rx="1" fill="#60A5FA" />
  
  <!-- Worker 1 - installing equipment -->
  <circle cx="140" cy="80" r="7" fill="#93C5FD" />
  <line x1="140" y1="87" x2="140" y2="100" stroke="#93C5FD" stroke-width="2" />
  <line x1="140" y1="90" x2="130" y2="95" stroke="#93C5FD" stroke-width="2" />
  <line x1="140" y1="90" x2="150" y2="95" stroke="#93C5FD" stroke-width="2" />
  <line x1="140" y1="100" x2="135" y2="110" stroke="#93C5FD" stroke-width="2" />
  <line x1="140" y1="100" x2="145" y2="110" stroke="#93C5FD" stroke-width="2" />
  
  <!-- Worker 2 - installing control panel -->
  <circle cx="280" cy="70" r="7" fill="#93C5FD" />
  <line x1="280" y1="77" x2="280" y2="90" stroke="#93C5FD" stroke-width="2" />
  <line x1="280" y1="80" x2="270" y2="85" stroke="#93C5FD" stroke-width="2" />
  <line x1="280" y1="80" x2="290" y2="85" stroke="#93C5FD" stroke-width="2" />
  <line x1="280" y1="90" x2="275" y2="100" stroke="#93C5FD" stroke-width="2" />
  <line x1="280" y1="90" x2="285" y2="100" stroke="#93C5FD" stroke-width="2" />
  
  <!-- Connection lines -->
  <path d="M100 38L160 70" stroke="#60A5FA" stroke-width="1" stroke-dasharray="3 2" />
  <path d="M250 40L180 55" stroke="#60A5FA" stroke-width="1" stroke-dasharray="3 2" />
  <path d="M400 38L325 55" stroke="#60A5FA" stroke-width="1" stroke-dasharray="3 2" />
  <path d="M200 75L300 70" stroke="#60A5FA" stroke-width="1" stroke-dasharray="3 2" />
  
<!-- Removed text label -->
  
  <!-- Gradient definition -->
  <defs>
    <linearGradient id="paint0_linear" x1="0" y1="0" x2="500" y2="120" gradientUnits="userSpaceOnUse">
      <stop stop-color="#3B82F6" />
      <stop offset="1" stop-color="#2563EB" />
    </linearGradient>
  </defs>
</svg>