<svg width="500" height="120" viewBox="0 0 500 120" fill="none" xmlns="http://www.w3.org/2000/svg">
  <!-- Background with gradient -->
  <rect width="500" height="120" rx="10" fill="url(#paint0_linear)" />
  
  <!-- System design blueprint grid -->
  <g stroke="white" stroke-opacity="0.2" stroke-width="0.8">
    <path d="M50 30H450" />
    <path d="M50 40H450" />
    <path d="M50 50H450" />
    <path d="M50 60H450" />
    <path d="M50 70H450" />
    <path d="M50 80H450" />
    <path d="M50 90H450" />
    <path d="M50 100H450" />
    
    <path d="M50 30V100" />
    <path d="M100 30V100" />
    <path d="M150 30V100" />
    <path d="M200 30V100" />
    <path d="M250 30V100" />
    <path d="M300 30V100" />
    <path d="M350 30V100" />
    <path d="M400 30V100" />
    <path d="M450 30V100" />
  </g>
  
  <!-- Storage system components -->
  <!-- Storage container 1 -->
  <rect x="80" y="40" width="50" height="40" rx="2" fill="#BFDBFE" stroke="white" stroke-width="1.5" />
  <rect x="90" y="45" width="30" height="5" rx="1" fill="#60A5FA" />
  <rect x="90" y="55" width="30" height="5" rx="1" fill="#60A5FA" />
  <rect x="90" y="65" width="30" height="5" rx="1" fill="#60A5FA" />
  
  <!-- Server/processing unit -->
  <rect x="170" y="45" width="60" height="30" rx="2" fill="#93C5FD" stroke="white" stroke-width="1.5" />
  <circle cx="190" cy="55" r="5" fill="#2563EB" />
  <circle cx="210" cy="55" r="5" fill="#2563EB" />
  <rect x="180" y="70" width="40" height="8" rx="1" fill="#60A5FA" />
  
  <!-- Camera/Monitoring system -->
  <circle cx="280" cy="60" r="25" fill="#60A5FA" stroke="white" stroke-width="1.5" />
  <circle cx="280" cy="60" r="15" fill="#93C5FD" stroke="white" stroke-width="1" />
  <circle cx="280" cy="60" r="5" fill="#2563EB" />
  
  <!-- Control panel -->
  <rect x="350" y="40" width="70" height="45" rx="3" fill="#93C5FD" stroke="white" stroke-width="1.5" />
  <rect x="360" y="45" width="50" height="8" rx="1" fill="#60A5FA" />
  <rect x="360" y="57" width="50" height="8" rx="1" fill="#60A5FA" />
  <rect x="360" y="69" width="50" height="8" rx="1" fill="#60A5FA" />
  
  <!-- Connection lines -->
  <path d="M130 60H170" stroke="white" stroke-width="2" stroke-dasharray="4 2" />
  <path d="M230 60H255" stroke="white" stroke-width="2" stroke-dasharray="4 2" />
  <path d="M305 60H350" stroke="white" stroke-width="2" stroke-dasharray="4 2" />
  
<!-- Removed text label -->
  
  <!-- Gradient definition -->
  <defs>
    <linearGradient id="paint0_linear" x1="0" y1="0" x2="500" y2="120" gradientUnits="userSpaceOnUse">
      <stop stop-color="#3B82F6" />
      <stop offset="1" stop-color="#2563EB" />
    </linearGradient>
  </defs>
</svg>