<svg width="500" height="120" viewBox="0 0 500 120" fill="none" xmlns="http://www.w3.org/2000/svg">
  <!-- Background with gradient -->
  <rect width="500" height="120" rx="10" fill="url(#paint0_linear)" />
  
  <!-- Training room setup -->
  <rect x="70" y="30" width="360" height="70" rx="5" fill="#1E40AF" fill-opacity="0.2" stroke="white" stroke-width="1.5" />
  
  <!-- Presentation screen -->
  <rect x="190" y="30" width="120" height="60" rx="2" fill="#BFDBFE" stroke="white" stroke-width="1.5" />
  
  <!-- Screen content - coal monitoring interface -->
  <rect x="200" y="40" width="100" height="40" rx="2" fill="#93C5FD" />
  <rect x="205" y="45" width="40" height="30" fill="#60A5FA" />
  <rect x="250" y="45" width="45" height="15" fill="#3B82F6" />
  <rect x="250" y="65" width="45" height="10" fill="#2563EB" />
  <circle cx="225" cy="55" r="10" fill="#1E40AF" />
  
  <!-- Trainer -->
  <circle cx="160" cy="50" r="8" fill="#93C5FD" />
  <line x1="160" y1="58" x2="160" y2="75" stroke="#93C5FD" stroke-width="3" />
  <line x1="160" y1="65" x2="150" y2="70" stroke="#93C5FD" stroke-width="2" />
  <line x1="160" y1="65" x2="170" y2="70" stroke="#93C5FD" stroke-width="2" />
  <line x1="160" y1="75" x2="155" y2="90" stroke="#93C5FD" stroke-width="2" />
  <line x1="160" y1="75" x2="165" y2="90" stroke="#93C5FD" stroke-width="2" />
  
  <!-- Trainees in a semicircle -->
  <!-- Trainee 1 -->
  <circle cx="100" cy="85" r="7" fill="#93C5FD" />
  <line x1="100" y1="92" x2="100" y2="105" stroke="#93C5FD" stroke-width="2" />
  <line x1="100" y1="95" x2="95" y2="105" stroke="#93C5FD" stroke-width="2" />
  <line x1="100" y1="95" x2="105" y2="105" stroke="#93C5FD" stroke-width="2" />
  
  <!-- Trainee 2 -->
  <circle cx="140" cy="90" r="7" fill="#93C5FD" />
  <line x1="140" y1="97" x2="140" y2="110" stroke="#93C5FD" stroke-width="2" />
  <line x1="140" y1="100" x2="135" y2="110" stroke="#93C5FD" stroke-width="2" />
  <line x1="140" y1="100" x2="145" y2="110" stroke="#93C5FD" stroke-width="2" />
  
  <!-- Trainee 3 -->
  <circle cx="250" cy="90" r="7" fill="#93C5FD" />
  <line x1="250" y1="97" x2="250" y2="110" stroke="#93C5FD" stroke-width="2" />
  <line x1="250" y1="100" x2="245" y2="110" stroke="#93C5FD" stroke-width="2" />
  <line x1="250" y1="100" x2="255" y2="110" stroke="#93C5FD" stroke-width="2" />
  
  <!-- Trainee 4 -->
  <circle cx="290" cy="90" r="7" fill="#93C5FD" />
  <line x1="290" y1="97" x2="290" y2="110" stroke="#93C5FD" stroke-width="2" />
  <line x1="290" y1="100" x2="285" y2="110" stroke="#93C5FD" stroke-width="2" />
  <line x1="290" y1="100" x2="295" y2="110" stroke="#93C5FD" stroke-width="2" />
  
  <!-- Trainee 5 -->
  <circle cx="330" cy="85" r="7" fill="#93C5FD" />
  <line x1="330" y1="92" x2="330" y2="105" stroke="#93C5FD" stroke-width="2" />
  <line x1="330" y1="95" x2="325" y2="105" stroke="#93C5FD" stroke-width="2" />
  <line x1="330" y1="95" x2="335" y2="105" stroke="#93C5FD" stroke-width="2" />
  
  <!-- Control panel mockup -->
  <rect x="370" y="40" width="40" height="30" rx="2" fill="#BFDBFE" stroke="white" stroke-width="1" />
  <rect x="375" y="45" width="30" height="5" rx="1" fill="#60A5FA" />
  <rect x="375" y="55" width="30" height="5" rx="1" fill="#60A5FA" />
  <rect x="375" y="65" width="15" height="5" rx="1" fill="#3B82F6" />
  
  <!-- Documentation/manual -->
  <rect x="80" y="40" width="30" height="35" rx="2" fill="white" stroke="#93C5FD" stroke-width="1" />
  <line x1="85" y1="45" x2="105" y2="45" stroke="#93C5FD" stroke-width="1" />
  <line x1="85" y1="50" x2="105" y2="50" stroke="#93C5FD" stroke-width="1" />
  <line x1="85" y1="55" x2="105" y2="55" stroke="#93C5FD" stroke-width="1" />
  <line x1="85" y1="60" x2="105" y2="60" stroke="#93C5FD" stroke-width="1" />
  <line x1="85" y1="65" x2="95" y2="65" stroke="#93C5FD" stroke-width="1" />
  
  <!-- Training and Support text -->
  <text x="50%" y="18" font-family="Arial, sans-serif" font-size="18" font-weight="bold" text-anchor="middle" fill="white">Training and Support</text>
  
  <!-- Gradient definition -->
  <defs>
    <linearGradient id="paint0_linear" x1="0" y1="0" x2="500" y2="120" gradientUnits="userSpaceOnUse">
      <stop stop-color="#3B82F6" />
      <stop offset="1" stop-color="#2563EB" />
    </linearGradient>
  </defs>
</svg>