<?xml version="1.0" encoding="UTF-8"?>
<svg width="24px" height="24px" viewBox="0 0 24 24" version="1.1" xmlns="http://www.w3.org/2000/svg" xmlns:xlink="http://www.w3.org/1999/xlink">
    <title>煤险处置Icon</title>
    <g stroke="none" stroke-width="1" fill="none" fill-rule="evenodd">
        <g>
            <rect x="0" y="0" width="24" height="24"></rect>
            <path d="M5,3 C3.89543,3 3,3.89543 3,5 L3,19 C3,20.1046 3.89543,21 5,21 L19,21 C20.1046,21 21,20.1046 21,19 L21,5 C21,3.89543 20.1046,3 19,3 L5,3 Z M5,5 L19,5 L19,19 L5,19 L5,5 Z" fill="currentColor" fill-rule="nonzero"></path>
            <path d="M9,7 C8.44772,7 8,7.44772 8,8 L8,16 C8,16.5523 8.44772,17 9,17 L15,17 C15.5523,17 16,16.5523 16,16 L16,8 C16,7.44772 15.5523,7 15,7 L9,7 Z M10,9 L14,9 L14,15 L10,15 L10,9 Z" fill="currentColor" fill-rule="nonzero"></path>
            <path d="M7,7.75 C7,7.33579 7.33579,7 7.75,7 L10.25,7 C10.6642,7 11,7.33579 11,7.75 C11,8.16421 10.6642,8.5 10.25,8.5 L7.75,8.5 C7.33579,8.5 7,8.16421 7,7.75 Z" fill="currentColor" fill-rule="nonzero"></path>
            <path d="M13,7.75 C13,7.33579 13.3358,7 13.75,7 L16.25,7 C16.6642,7 17,7.33579 17,7.75 C17,8.16421 16.6642,8.5 16.25,8.5 L13.75,8.5 C13.3358,8.5 13,8.16421 13,7.75 Z" fill="currentColor" fill-rule="nonzero"></path>
            <path d="M12,12 L12,10 L17,10 L17,12 L12,12 Z" fill="currentColor" fill-rule="nonzero"></path>
            <path d="M12,15 L12,13 L17,13 L17,15 L12,15 Z" fill="currentColor" fill-rule="nonzero"></path>
            <path d="M7,10 L7,12 L9,12 L9,10 L7,10 Z" fill="currentColor" fill-rule="nonzero"></path>
            <path d="M7,15 L7,13 L9,13 L9,15 L7,15 Z" fill="currentColor" fill-rule="nonzero"></path>
        </g>
    </g>
</svg>