<svg width="120" height="120" viewBox="0 0 120 120" fill="none" xmlns="http://www.w3.org/2000/svg">
  <!-- Background Circle -->
  <circle cx="60" cy="60" r="60" fill="#EFF6FF" />

  <!-- Brain with Circuits - Representing AI -->
  <path d="M60 36C73.2548 36 84 46.7452 84 60C84 73.2548 73.2548 84 60 84C46.7452 84 36 73.2548 36 60C36 46.7452 46.7452 36 60 36Z" fill="#DBEAFE" stroke="#3B82F6" stroke-width="2" />

  <!-- Circuit Paths -->
  <path d="M48 50H60V70H72" stroke="#3B82F6" stroke-width="2" stroke-linecap="round" />
  <path d="M43 60H53" stroke="#3B82F6" stroke-width="2" stroke-linecap="round" />
  <path d="M67 60H77" stroke="#3B82F6" stroke-width="2" stroke-linecap="round" />
  <path d="M48 70H56" stroke="#3B82F6" stroke-width="2" stroke-linecap="round" />
  <path d="M56 50H70" stroke="#3B82F6" stroke-width="2" stroke-linecap="round" />

  <!-- Circuit Points -->
  <circle cx="48" cy="50" r="3" fill="white" stroke="#3B82F6" stroke-width="1.5" />
  <circle cx="60" cy="50" r="3" fill="white" stroke="#3B82F6" stroke-width="1.5" />
  <circle cx="60" cy="70" r="3" fill="white" stroke="#3B82F6" stroke-width="1.5" />
  <circle cx="72" cy="70" r="3" fill="white" stroke="#3B82F6" stroke-width="1.5" />
  <circle cx="70" cy="50" r="3" fill="white" stroke="#3B82F6" stroke-width="1.5" />
  <circle cx="43" cy="60" r="3" fill="white" stroke="#3B82F6" stroke-width="1.5" />
  <circle cx="53" cy="60" r="3" fill="white" stroke="#3B82F6" stroke-width="1.5" />
  <circle cx="67" cy="60" r="3" fill="white" stroke="#3B82F6" stroke-width="1.5" />
  <circle cx="77" cy="60" r="3" fill="white" stroke="#3B82F6" stroke-width="1.5" />
  <circle cx="48" cy="70" r="3" fill="white" stroke="#3B82F6" stroke-width="1.5" />
  <circle cx="56" cy="70" r="3" fill="white" stroke="#3B82F6" stroke-width="1.5" />
  
  <!-- Lightbulb - Representing Ideas & Innovation -->
  <path d="M80 30C80 27.2386 82.2386 25 85 25H88C90.7614 25 93 27.2386 93 30V35C93 37.7614 90.7614 40 88 40H85C82.2386 40 80 37.7614 80 35V30Z" fill="#BFDBFE" />
  <path d="M86.5 40V45" stroke="#3B82F6" stroke-width="2" stroke-linecap="round" />
  <path d="M86.5 25C86.5 25 86.5 20 86.5 18C86.5 15.7909 84.7091 14 82.5 14C80.2909 14 78.5 15.7909 78.5 18C78.5 20.2091 80.2909 22 82.5 22" stroke="#3B82F6" stroke-width="2" stroke-linecap="round" />
  
  <!-- Document - Representing Reports & Analysis -->
  <rect x="27" y="75" width="20" height="25" rx="2" fill="white" stroke="#3B82F6" stroke-width="2" />
  <line x1="32" y1="82" x2="42" y2="82" stroke="#3B82F6" stroke-width="1.5" stroke-linecap="round" />
  <line x1="32" y1="87" x2="42" y2="87" stroke="#3B82F6" stroke-width="1.5" stroke-linecap="round" />
  <line x1="32" y1="92" x2="38" y2="92" stroke="#3B82F6" stroke-width="1.5" stroke-linecap="round" />
</svg>