<svg width="800" height="500" viewBox="0 0 800 500" fill="none" xmlns="http://www.w3.org/2000/svg">
  <!-- Background -->
  <rect width="800" height="500" rx="10" fill="white" />
  
  <!-- Header -->
  <rect width="800" height="60" rx="10" fill="#1e293b" />
  <circle cx="30" cy="30" r="15" fill="#3B82F6" />
  <rect x="55" y="20" width="150" height="20" rx="4" fill="#334155" />
  <rect x="650" y="20" width="40" height="20" rx="4" fill="#334155" />
  <rect x="700" y="20" width="70" height="20" rx="4" fill="#334155" />
  
  <!-- Tabs -->
  <rect x="20" y="80" width="760" height="40" rx="4" fill="#f8fafc" />
  <rect x="30" y="85" width="120" height="30" rx="4" fill="#3B82F6" />
  <text x="90" y="105" text-anchor="middle" fill="white" font-size="14" font-weight="bold" font-family="Arial">抵押担保</text>
  
  <rect x="160" y="85" width="120" height="30" rx="4" fill="#f8fafc" />
  <text x="220" y="105" text-anchor="middle" fill="#64748B" font-size="14" font-family="Arial">货物记录</text>
  
  <rect x="290" y="85" width="120" height="30" rx="4" fill="#f8fafc" />
  <text x="350" y="105" text-anchor="middle" fill="#64748B" font-size="14" font-family="Arial">仓储管理</text>
  
  <rect x="420" y="85" width="120" height="30" rx="4" fill="#f8fafc" />
  <text x="480" y="105" text-anchor="middle" fill="#64748B" font-size="14" font-family="Arial">融资申请</text>
  
  <!-- Main Content -->
  <rect x="20" y="140" width="500" height="340" rx="8" fill="#f8fafc" />
  
  <!-- Table Header -->
  <rect x="20" y="140" width="500" height="50" rx="8" fill="#f1f5f9" />
  <text x="40" y="170" fill="#111827" font-size="14" font-weight="bold" font-family="Arial">抵押煤炭资产</text>
  <rect x="400" y="155" width="100" height="30" rx="4" fill="#3B82F6" />
  <text x="450" y="175" text-anchor="middle" fill="white" font-size="14" font-family="Arial">添加资产</text>
  
  <!-- Table Column Headers -->
  <rect x="20" y="190" width="500" height="40" rx="0" fill="#EFF6FF" />
  <text x="40" y="215" fill="#1E40AF" font-size="14" font-family="Arial">库存编号</text>
  <text x="160" y="215" fill="#1E40AF" font-size="14" font-family="Arial">煤种</text>
  <text x="260" y="215" fill="#1E40AF" font-size="14" font-family="Arial">数量 (吨)</text>
  <text x="360" y="215" fill="#1E40AF" font-size="14" font-family="Arial">估值 (万元)</text>
  <text x="465" y="215" fill="#1E40AF" font-size="14" font-family="Arial">状态</text>
  
  <!-- Table Rows -->
  <rect x="20" y="230" width="500" height="40" fill="white" stroke="#E5E7EB" />
  <text x="40" y="255" fill="#374151" font-size="14" font-family="Arial">INV-2025-001</text>
  <text x="160" y="255" fill="#374151" font-size="14" font-family="Arial">焦煤</text>
  <text x="260" y="255" fill="#374151" font-size="14" font-family="Arial">25,000</text>
  <text x="360" y="255" fill="#374151" font-size="14" font-family="Arial">3,250</text>
  <rect x="445" y="240" width="55" height="20" rx="10" fill="#DCFCE7" />
  <text x="472" y="255" text-anchor="middle" fill="#166534" font-size="12" font-family="Arial">已审</text>
  
  <rect x="20" y="270" width="500" height="40" fill="white" stroke="#E5E7EB" />
  <text x="40" y="295" fill="#374151" font-size="14" font-family="Arial">INV-2025-002</text>
  <text x="160" y="295" fill="#374151" font-size="14" font-family="Arial">动力煤</text>
  <text x="260" y="295" fill="#374151" font-size="14" font-family="Arial">42,800</text>
  <text x="360" y="295" fill="#374151" font-size="14" font-family="Arial">4,120</text>
  <rect x="445" y="280" width="55" height="20" rx="10" fill="#DCFCE7" />
  <text x="472" y="295" text-anchor="middle" fill="#166534" font-size="12" font-family="Arial">已审</text>
  
  <rect x="20" y="310" width="500" height="40" fill="white" stroke="#E5E7EB" />
  <text x="40" y="335" fill="#374151" font-size="14" font-family="Arial">INV-2025-003</text>
  <text x="160" y="335" fill="#374151" font-size="14" font-family="Arial">无烟煤</text>
  <text x="260" y="335" fill="#374151" font-size="14" font-family="Arial">18,500</text>
  <text x="360" y="335" fill="#374151" font-size="14" font-family="Arial">2,405</text>
  <rect x="445" y="320" width="55" height="20" rx="10" fill="#FEF9C3" />
  <text x="472" y="335" text-anchor="middle" fill="#854D0E" font-size="12" font-family="Arial">审核中</text>
  
  <rect x="20" y="350" width="500" height="40" fill="white" stroke="#E5E7EB" />
  <text x="40" y="375" fill="#374151" font-size="14" font-family="Arial">INV-2025-004</text>
  <text x="160" y="375" fill="#374151" font-size="14" font-family="Arial">肥煤</text>
  <text x="260" y="375" fill="#374151" font-size="14" font-family="Arial">31,200</text>
  <text x="360" y="375" fill="#374151" font-size="14" font-family="Arial">3,744</text>
  <rect x="445" y="360" width="55" height="20" rx="10" fill="#FEE2E2" />
  <text x="472" y="375" text-anchor="middle" fill="#B91C1C" font-size="12" font-family="Arial">待审</text>
  
  <rect x="20" y="390" width="500" height="40" fill="white" stroke="#E5E7EB" />
  <text x="40" y="415" fill="#374151" font-size="14" font-family="Arial">INV-2025-005</text>
  <text x="160" y="415" fill="#374151" font-size="14" font-family="Arial">瘦煤</text>
  <text x="260" y="415" fill="#374151" font-size="14" font-family="Arial">22,600</text>
  <text x="360" y="415" fill="#374151" font-size="14" font-family="Arial">2,825</text>
  <rect x="445" y="400" width="55" height="20" rx="10" fill="#FEE2E2" />
  <text x="472" y="415" text-anchor="middle" fill="#B91C1C" font-size="12" font-family="Arial">待审</text>
  
  <!-- Summary Panel -->
  <rect x="540" y="140" width="240" height="340" rx="8" fill="#f8fafc" />
  
  <!-- Summary Header -->
  <text x="560" y="170" fill="#111827" font-size="16" font-weight="bold" font-family="Arial">抵押担保摘要</text>
  
  <!-- Summary Card -->
  <rect x="560" y="190" width="200" height="100" rx="8" fill="white" stroke="#E5E7EB" />
  <text x="580" y="220" fill="#374151" font-size="14" font-family="Arial">总资产量:</text>
  <text x="740" y="220" text-anchor="end" fill="#111827" font-size="14" font-weight="bold" font-family="Arial">140,100 吨</text>
  
  <text x="580" y="250" fill="#374151" font-size="14" font-family="Arial">总估值:</text>
  <text x="740" y="250" text-anchor="end" fill="#111827" font-size="14" font-weight="bold" font-family="Arial">¥ 16,344 万元</text>
  
  <text x="580" y="270" fill="#374151" font-size="12" font-family="Arial">上次更新: 2025-03-28</text>
  
  <!-- Loan Summary -->
  <rect x="560" y="310" width="200" height="130" rx="8" fill="white" stroke="#E5E7EB" />
  <text x="580" y="335" fill="#374151" font-size="14" font-weight="bold" font-family="Arial">可融资额度</text>
  
  <text x="580" y="365" fill="#374151" font-size="14" font-family="Arial">已审抵押物:</text>
  <text x="740" y="365" text-anchor="end" fill="#111827" font-size="14" font-family="Arial">¥ 7,370 万元</text>
  
  <text x="580" y="390" fill="#374151" font-size="14" font-family="Arial">贷款额度:</text>
  <text x="740" y="390" text-anchor="end" fill="#111827" font-size="14" font-family="Arial">¥ 5,159 万元</text>
  
  <text x="580" y="415" fill="#374151" font-size="14" font-family="Arial">已用额度:</text>
  <text x="740" y="415" text-anchor="end" fill="#111827" font-size="14" font-family="Arial">¥ 2,500 万元</text>
  
  <!-- Apply Button -->
  <rect x="560" y="460" width="200" height="40" rx="4" fill="#3B82F6" />
  <text x="660" y="485" text-anchor="middle" fill="white" font-size="14" font-weight="bold" font-family="Arial">申请融资</text>
</svg>