<svg width="800" height="500" viewBox="0 0 800 500" fill="none" xmlns="http://www.w3.org/2000/svg">
  <!-- Background -->
  <rect width="800" height="500" rx="10" fill="#1e293b" />
  
  <!-- Header bar -->
  <rect width="800" height="60" rx="10" fill="#0f172a" />
  <circle cx="40" cy="30" r="15" fill="#3B82F6" />
  <rect x="70" y="20" width="150" height="20" rx="4" fill="#334155" />
  <rect x="650" y="20" width="40" height="20" rx="4" fill="#334155" />
  <rect x="700" y="20" width="70" height="20" rx="4" fill="#334155" />
  
  <!-- Sidebar -->
  <rect width="200" height="440" y="60" fill="#0f172a" />
  <rect x="20" y="90" width="160" height="15" rx="2" fill="#334155" />
  <rect x="20" y="130" width="160" height="15" rx="2" fill="#334155" />
  <rect x="20" y="170" width="160" height="15" rx="2" fill="#334155" />
  <rect x="20" y="210" width="160" height="15" rx="2" fill="#334155" />
  <rect x="20" y="250" width="160" height="15" rx="2" fill="#334155" />
  <rect x="20" y="290" width="160" height="15" rx="2" fill="#334155" />
  
  <!-- Main Content -->
  <rect x="220" y="80" width="560" height="60" rx="8" fill="#0f172a" />
  <rect x="240" y="95" width="100" height="30" rx="4" fill="#334155" />
  <rect x="350" y="95" width="100" height="30" rx="4" fill="#334155" />
  <rect x="460" y="95" width="100" height="30" rx="4" fill="#334155" />
  <rect x="660" y="95" width="100" height="30" rx="4" fill="#3B82F6" />
  
  <!-- Data Widgets -->
  <rect x="220" y="160" width="270" height="150" rx="8" fill="#0f172a" />
  <rect x="240" y="180" width="230" height="20" rx="4" fill="#334155" />
  
  <!-- Coal Storage Levels Chart -->
  <g transform="translate(240, 210)">
    <rect width="230" height="80" rx="4" fill="#0f172a" />
    <rect x="10" y="70" width="30" height="-20" fill="#3B82F6" />
    <rect x="50" y="70" width="30" height="-40" fill="#3B82F6" />
    <rect x="90" y="70" width="30" height="-60" fill="#3B82F6" />
    <rect x="130" y="70" width="30" height="-30" fill="#3B82F6" />
    <rect x="170" y="70" width="30" height="-50" fill="#3B82F6" />
  </g>
  
  <!-- Warehouse Status -->
  <rect x="510" y="160" width="270" height="150" rx="8" fill="#0f172a" />
  <rect x="530" y="180" width="230" height="20" rx="4" fill="#334155" />
  
  <!-- Status Indicators -->
  <circle cx="550" cy="230" r="15" fill="#10B981" />
  <rect x="580" y="220" width="150" height="15" rx="2" fill="#334155" />
  
  <circle cx="550" cy="270" r="15" fill="#F59E0B" />
  <rect x="580" y="260" width="150" height="15" rx="2" fill="#334155" />
  
  <!-- Bottom Widgets -->
  <rect x="220" y="330" width="270" height="150" rx="8" fill="#0f172a" />
  <rect x="240" y="350" width="230" height="20" rx="4" fill="#334155" />
  
  <!-- Coal Quality Gauge -->
  <circle cx="355" cy="410" r="40" stroke="#334155" stroke-width="10" />
  <path d="M355,410 L355,380" stroke="#3B82F6" stroke-width="4" />
  <rect x="330" y="420" width="50" height="15" rx="2" fill="#334155" />
  
  <!-- Temperature Monitoring -->
  <rect x="510" y="330" width="270" height="150" rx="8" fill="#0f172a" />
  <rect x="530" y="350" width="230" height="20" rx="4" fill="#334155" />
  
  <!-- Heat Map Visualization -->
  <g transform="translate(530, 380)">
    <rect width="40" height="40" fill="#3B82F6" opacity="0.3" />
    <rect x="50" width="40" height="40" fill="#3B82F6" opacity="0.5" />
    <rect x="100" width="40" height="40" fill="#3B82F6" opacity="0.7" />
    <rect x="150" width="40" height="40" fill="#EF4444" opacity="0.8" />
    <rect width="40" height="40" y="50" fill="#3B82F6" opacity="0.4" />
    <rect x="50" y="50" width="40" height="40" fill="#3B82F6" opacity="0.6" />
    <rect x="100" y="50" width="40" height="40" fill="#F59E0B" opacity="0.7" />
    <rect x="150" y="50" width="40" height="40" fill="#3B82F6" opacity="0.4" />
  </g>
</svg>